<svg width="86" height="13" viewBox="0 0 86 13" fill="none" xmlns="http://www.w3.org/2000/svg">
<path d="M3.26145 1.09091V12H0.954989V1.09091H3.26145ZM5.15909 1.09091H8.00355L11.0078 8.42045H11.1357L14.1399 1.09091H16.9844V12H14.7472V4.8995H14.6566L11.8335 11.9467H10.31L7.48686 4.87287H7.39631V12H5.15909V1.09091ZM18.8847 12V1.09091H23.1887C24.0161 1.09091 24.721 1.24893 25.3034 1.56499C25.8857 1.87749 26.3296 2.3125 26.635 2.87003C26.944 3.42401 27.0985 4.06321 27.0985 4.78764C27.0985 5.51207 26.9422 6.15128 26.6297 6.70526C26.3172 7.25923 25.8644 7.6907 25.2714 7.99964C24.6819 8.30859 23.9681 8.46307 23.1301 8.46307H20.3868V6.6147H22.7572C23.2011 6.6147 23.5669 6.53835 23.8545 6.38565C24.1457 6.2294 24.3623 6.01456 24.5044 5.74112C24.6499 5.46413 24.7227 5.14631 24.7227 4.78764C24.7227 4.42543 24.6499 4.10937 24.5044 3.83949C24.3623 3.56605 24.1457 3.35476 23.8545 3.20561C23.5633 3.05291 23.194 2.97656 22.7465 2.97656H21.1911V12H18.8847ZM30.9031 1.09091V12H28.5966V1.09091H30.9031ZM41.9253 1.09091V12H39.9331L35.1871 5.13388H35.1072V12H32.8007V1.09091H34.8248L39.5336 7.9517H39.6295V1.09091H41.9253Z" fill="white"/>
<path d="M53.4563 4.91016H51.1232C51.0806 4.60831 50.9936 4.3402 50.8622 4.10582C50.7308 3.8679 50.5621 3.66548 50.3562 3.49858C50.1502 3.33168 49.9123 3.20383 49.6424 3.11506C49.3761 3.02628 49.0866 2.98189 48.7741 2.98189C48.2095 2.98189 47.7177 3.12216 47.2987 3.4027C46.8796 3.67969 46.5547 4.08452 46.3239 4.61719C46.093 5.14631 45.9776 5.78906 45.9776 6.54545C45.9776 7.32315 46.093 7.97656 46.3239 8.50568C46.5582 9.0348 46.8849 9.4343 47.304 9.70419C47.723 9.97408 48.2077 10.109 48.7582 10.109C49.0671 10.109 49.353 10.0682 49.6158 9.98651C49.8821 9.90483 50.1183 9.78587 50.3242 9.62962C50.5302 9.46982 50.7006 9.27628 50.8356 9.04901C50.9741 8.82173 51.07 8.5625 51.1232 8.27131L53.4563 8.28196C53.396 8.78267 53.245 9.26562 53.0036 9.73082C52.7656 10.1925 52.4442 10.6062 52.0394 10.9719C51.6381 11.3342 51.1587 11.6218 50.6012 11.8349C50.0472 12.0444 49.4205 12.1491 48.7209 12.1491C47.7479 12.1491 46.8778 11.929 46.1108 11.4886C45.3473 11.0483 44.7436 10.4109 44.2997 9.57635C43.8594 8.74183 43.6392 7.73153 43.6392 6.54545C43.6392 5.35582 43.8629 4.34375 44.3104 3.50923C44.7578 2.67472 45.3651 2.03906 46.1321 1.60227C46.8991 1.16193 47.7621 0.941761 48.7209 0.941761C49.353 0.941761 49.9389 1.03054 50.4787 1.2081C51.022 1.38565 51.5032 1.64489 51.9222 1.98579C52.3413 2.32315 52.6822 2.73686 52.945 3.22692C53.2113 3.71697 53.3817 4.27805 53.4563 4.91016ZM65.1351 6.54545C65.1351 7.73509 64.9096 8.74716 64.4586 9.58168C64.0112 10.4162 63.4004 11.0536 62.6262 11.494C61.8556 11.9308 60.9892 12.1491 60.0268 12.1491C59.0574 12.1491 58.1873 11.929 57.4167 11.4886C56.6461 11.0483 56.0371 10.4109 55.5897 9.57635C55.1422 8.74183 54.9185 7.73153 54.9185 6.54545C54.9185 5.35582 55.1422 4.34375 55.5897 3.50923C56.0371 2.67472 56.6461 2.03906 57.4167 1.60227C58.1873 1.16193 59.0574 0.941761 60.0268 0.941761C60.9892 0.941761 61.8556 1.16193 62.6262 1.60227C63.4004 2.03906 64.0112 2.67472 64.4586 3.50923C64.9096 4.34375 65.1351 5.35582 65.1351 6.54545ZM62.7967 6.54545C62.7967 5.77486 62.6813 5.125 62.4505 4.59588C62.2232 4.06676 61.9018 3.66548 61.4863 3.39205C61.0708 3.11861 60.5843 2.98189 60.0268 2.98189C59.4693 2.98189 58.9828 3.11861 58.5673 3.39205C58.1518 3.66548 57.8287 4.06676 57.5978 4.59588C57.3706 5.125 57.2569 5.77486 57.2569 6.54545C57.2569 7.31605 57.3706 7.96591 57.5978 8.49503C57.8287 9.02415 58.1518 9.42543 58.5673 9.69886C58.9828 9.9723 59.4693 10.109 60.0268 10.109C60.5843 10.109 61.0708 9.9723 61.4863 9.69886C61.9018 9.42543 62.2232 9.02415 62.4505 8.49503C62.6813 7.96591 62.7967 7.31605 62.7967 6.54545ZM70.7108 12H66.8437V1.09091H70.7428C71.8401 1.09091 72.7847 1.3093 73.5766 1.74609C74.3685 2.17933 74.9775 2.80256 75.4037 3.61577C75.8334 4.42898 76.0482 5.40199 76.0482 6.5348C76.0482 7.67116 75.8334 8.64773 75.4037 9.46449C74.9775 10.2812 74.365 10.908 73.566 11.3448C72.7705 11.7816 71.8188 12 70.7108 12ZM69.1501 10.0238H70.615C71.2968 10.0238 71.8703 9.90305 72.3355 9.66158C72.8042 9.41655 73.1558 9.03835 73.3902 8.52699C73.6281 8.01207 73.7471 7.34801 73.7471 6.5348C73.7471 5.72869 73.6281 5.06996 73.3902 4.55859C73.1558 4.04723 72.806 3.67081 72.3408 3.42933C71.8756 3.18786 71.3021 3.06712 70.6203 3.06712H69.1501V10.0238ZM77.7567 12V1.09091H85.1076V2.99254H80.0632V5.59197H84.7294V7.49361H80.0632V10.0984H85.1289V12H77.7567Z" fill="#6B4EFF"/>
</svg>
